<svg width="160" height="160" viewBox="0 0 160 160" fill="none" xmlns="http://www.w3.org/2000/svg">
<path d="M44.3567 41.1649C42.3685 39.2484 42.2969 36.0641 44.381 34.2525C50.7164 28.7455 58.2129 24.7001 66.3386 22.4336C76.0739 19.7182 86.3582 19.655 96.1261 22.2508C105.894 24.8465 114.79 30.0067 121.893 37.1968C127.822 43.1981 132.321 50.4313 135.087 58.3568C135.997 60.964 134.354 63.6928 131.677 64.3694L119.964 67.3297C117.286 68.0064 114.601 66.3644 113.545 63.8125C111.839 59.6863 109.345 55.9141 106.185 52.7154C101.849 48.3262 96.4178 45.1762 90.455 43.5916C84.4922 42.007 78.2142 42.0456 72.2713 43.7032C67.9402 44.9113 63.9019 46.9473 60.3726 49.6822C58.1898 51.3737 55.0432 51.4658 53.055 49.5494L44.3567 41.1649Z" fill="#00ADD2"/>
<path d="M113.093 119.794C115.108 121.682 115.224 124.865 113.165 126.706C103.285 135.541 90.5711 140.672 77.2183 141.105C62.1926 141.593 47.5888 136.091 36.6195 125.811C25.6502 115.53 19.2141 101.314 18.7269 86.2879C18.2939 72.935 22.5906 59.9154 30.7674 49.4836C32.4709 47.3102 35.655 47.2199 37.6699 49.1082L46.4852 57.3698C48.5001 59.2581 48.5676 62.4053 46.9891 64.6711C42.7523 70.7526 40.5537 78.0765 40.7968 85.5723C41.0942 94.7447 45.0231 103.423 51.7193 109.699C58.4154 115.974 67.3303 119.333 76.5027 119.035C83.9985 118.792 91.1646 116.124 96.9588 111.502C99.1176 109.78 102.263 109.644 104.277 111.532L113.093 119.794Z" fill="#00ADD2"/>
<path d="M118.214 114.799C120.256 116.658 123.438 116.522 125.11 114.325C129.362 108.737 132.547 102.396 134.49 95.6191C136.433 88.8419 137.09 81.7762 136.444 74.7848C136.19 72.0351 133.563 70.2342 130.846 70.7295L120.013 72.7046C117.296 73.1999 115.533 75.8079 115.644 78.5671C115.796 82.3587 115.343 86.1612 114.292 89.8294C113.24 93.4977 111.61 96.9628 109.472 100.098C107.916 102.379 108.031 105.526 110.072 107.385L118.214 114.799Z" fill="#00ADD2"/>
</svg>
