<svg width="286" height="146" viewBox="0 0 286 146" fill="none" xmlns="http://www.w3.org/2000/svg">
<g filter="url(#filter0_d_8_2)">
<path d="M108.512 108.384C105.653 108.384 103.435 107.68 101.856 106.272C100.32 104.821 99.552 102.795 99.552 100.192C99.552 99.5947 99.5947 98.9973 99.68 98.4C99.7653 97.8027 99.872 97.184 100 96.544L106.848 64.48L116.32 63.2L113.248 77.6C114.272 76.96 115.168 76.512 115.936 76.256C116.747 75.9573 117.6 75.808 118.496 75.808C121.013 75.808 122.891 76.7253 124.128 78.56C125.408 80.352 126.048 83.0827 126.048 86.752C126.048 89.2693 125.664 91.8507 124.896 94.496C124.128 97.1413 123.061 99.4453 121.696 101.408C120.117 103.712 118.219 105.461 116 106.656C113.781 107.808 111.285 108.384 108.512 108.384ZM108.704 99.232C108.704 100.213 108.981 100.96 109.536 101.472C110.133 101.941 110.987 102.176 112.096 102.176C114.016 102.176 115.744 100.491 117.28 97.12C118.816 93.7493 119.584 90.208 119.584 86.496C119.584 84.704 119.264 83.232 118.624 82.08C118.027 80.928 117.216 80.352 116.192 80.352C115.509 80.352 114.784 80.4587 114.016 80.672C113.248 80.8853 112.715 81.1627 112.416 81.504L108.896 97.76C108.853 98.016 108.811 98.272 108.768 98.528C108.725 98.784 108.704 99.0187 108.704 99.232ZM143.734 67.424C143.734 68.832 143.222 70.0267 142.198 71.008C141.216 71.9893 140.022 72.48 138.614 72.48C137.206 72.48 136.011 71.9893 135.03 71.008C134.048 70.0267 133.558 68.832 133.558 67.424C133.558 66.016 134.048 64.8213 135.03 63.84C136.011 62.816 137.206 62.304 138.614 62.304C140.022 62.304 141.216 62.816 142.198 63.84C143.222 64.8213 143.734 66.016 143.734 67.424ZM115.509 117.792C115.509 115.659 116.384 113.803 118.133 112.224C119.883 110.645 122.507 109.323 126.005 108.256L132.854 76H142.07L135.734 105.696C137.867 104.928 139.531 103.861 140.726 102.496C141.963 101.088 142.987 99.104 143.798 96.544H146.486C145.504 99.7867 144.096 102.389 142.262 104.352C140.47 106.315 138.102 107.701 135.158 108.512L134.198 113.12C133.43 116.704 132.086 119.413 130.166 121.248C128.245 123.083 125.749 124 122.677 124C120.501 124 118.773 123.445 117.493 122.336C116.171 121.227 115.509 119.712 115.509 117.792ZM125.301 111.456C123.168 112.267 121.589 113.099 120.565 113.952C119.541 114.848 119.03 115.829 119.03 116.896C119.03 117.451 119.243 117.941 119.669 118.368C120.096 118.795 120.608 119.008 121.205 119.008C121.931 119.008 122.635 118.496 123.317 117.472C124 116.448 124.533 115.061 124.917 113.312L125.301 111.456ZM167.301 81.568C167.301 85.1093 165.85 88.2027 162.949 90.848C160.047 93.4507 156.591 94.8587 152.581 95.072C152.538 95.7973 152.495 96.352 152.453 96.736C152.453 97.0773 152.453 97.376 152.453 97.632C152.453 99.5947 152.773 100.981 153.413 101.792C154.095 102.603 155.311 103.008 157.061 103.008C159.066 103.008 160.901 102.56 162.565 101.664C164.271 100.725 166.213 99.0187 168.389 96.544H170.565C168.09 100.555 165.402 103.541 162.501 105.504C159.599 107.424 156.421 108.384 152.965 108.384C149.679 108.384 147.183 107.531 145.477 105.824C143.812 104.117 142.98 101.579 142.98 98.208C142.98 95.776 143.364 93.1947 144.133 90.464C144.901 87.7333 145.925 85.3013 147.205 83.168C148.783 80.608 150.661 78.688 152.837 77.408C155.055 76.0853 157.53 75.424 160.26 75.424C162.607 75.424 164.357 75.936 165.509 76.96C166.703 77.9413 167.301 79.4773 167.301 81.568ZM160.773 78.816C159.322 78.816 157.85 80.1173 156.357 82.72C154.906 85.28 153.818 88.3733 153.093 92C155.567 91.8293 157.722 90.6987 159.557 88.608C161.434 86.4747 162.373 84.0853 162.373 81.44C162.373 80.544 162.245 79.8827 161.989 79.456C161.733 79.0293 161.327 78.816 160.773 78.816ZM192.988 81.312C192.988 82.7627 192.668 83.9147 192.028 84.768C191.431 85.5787 190.62 85.984 189.596 85.984C189.255 85.984 188.892 85.92 188.508 85.792C188.124 85.664 187.74 85.472 187.356 85.216C187.612 84.5333 187.804 83.872 187.932 83.232C188.06 82.592 188.124 81.9947 188.124 81.44C188.124 80.5867 187.975 79.9467 187.676 79.52C187.377 79.0507 186.929 78.816 186.332 78.816C184.455 78.816 182.62 80.992 180.828 85.344C179.036 89.6533 178.14 93.7493 178.14 97.632C178.14 99.5947 178.46 100.981 179.1 101.792C179.783 102.603 180.999 103.008 182.748 103.008C184.753 103.008 186.588 102.56 188.252 101.664C189.959 100.725 191.9 99.0187 194.076 96.544H196.252C193.777 100.555 191.089 103.541 188.188 105.504C185.287 107.424 182.108 108.384 178.652 108.384C175.367 108.384 172.871 107.531 171.164 105.824C169.5 104.117 168.668 101.579 168.668 98.208C168.668 95.776 169.031 93.1947 169.756 90.464C170.524 87.7333 171.569 85.3013 172.892 83.168C174.471 80.608 176.348 78.688 178.524 77.408C180.743 76.0853 183.196 75.424 185.884 75.424C188.231 75.424 190.001 75.936 191.196 76.96C192.391 77.9413 192.988 79.392 192.988 81.312ZM196.303 76H198.415L200.335 67.168L209.807 65.888L207.631 76H211.471L210.958 78.56H207.119L203.023 97.76C202.937 98.144 202.873 98.5067 202.831 98.848C202.788 99.1467 202.767 99.4667 202.767 99.808C202.767 100.661 202.959 101.28 203.343 101.664C203.769 102.005 204.452 102.176 205.391 102.176C206.585 102.176 207.716 101.664 208.783 100.64C209.849 99.5733 210.639 98.208 211.151 96.544H213.839C212.473 100.427 210.639 103.371 208.335 105.376C206.031 107.381 203.385 108.384 200.399 108.384C198.265 108.384 196.58 107.723 195.343 106.4C194.148 105.035 193.55 103.136 193.55 100.704C193.55 100.149 193.593 99.5307 193.678 98.848C193.764 98.1227 193.892 97.3547 194.062 96.544L197.903 78.56H195.791L196.303 76ZM226.933 67.488C226.933 68.896 226.421 70.0907 225.397 71.072C224.416 72.0533 223.221 72.544 221.813 72.544C220.405 72.544 219.21 72.0533 218.229 71.072C217.248 70.0907 216.757 68.896 216.757 67.488C216.757 66.08 217.248 64.8853 218.229 63.904C219.21 62.88 220.405 62.368 221.813 62.368C223.221 62.368 224.416 62.88 225.397 63.904C226.421 64.8853 226.933 66.08 226.933 67.488ZM210.613 100.704C210.613 100.149 210.656 99.5307 210.741 98.848C210.826 98.1227 210.954 97.3547 211.125 96.544L215.477 76H224.693L220.085 97.76C220 98.144 219.936 98.5067 219.893 98.848C219.85 99.1467 219.829 99.4667 219.829 99.808C219.829 100.661 220.021 101.28 220.405 101.664C220.832 102.005 221.514 102.176 222.453 102.176C223.648 102.176 224.778 101.664 225.845 100.64C226.912 99.5733 227.701 98.208 228.213 96.544H230.901C229.536 100.427 227.701 103.371 225.397 105.376C223.093 107.381 220.448 108.384 217.461 108.384C215.328 108.384 213.642 107.723 212.405 106.4C211.21 105.035 210.613 103.136 210.613 100.704ZM248.028 81.44C247.345 81.44 246.79 81.12 246.364 80.48C245.937 79.7973 245.724 79.0293 245.724 78.176C245.724 77.1093 246.065 76.2773 246.748 75.68C247.473 75.04 248.454 74.72 249.692 74.72C251.014 74.72 252.017 75.2107 252.7 76.192C253.382 77.1733 253.724 78.5387 253.724 80.288C253.724 83.1893 253.34 86.24 252.572 89.44C251.846 92.5973 250.844 95.4773 249.564 98.08C247.857 101.451 245.809 104.011 243.42 105.76C241.03 107.509 238.385 108.384 235.484 108.384C232.966 108.384 231.025 107.744 229.66 106.464C228.294 105.141 227.611 103.264 227.611 100.832C227.611 100.363 227.654 99.872 227.739 99.36C227.782 98.8053 227.846 98.272 227.931 97.76L232.54 76H241.756L237.148 97.76C237.062 98.2293 236.977 98.6773 236.892 99.104C236.849 99.488 236.828 99.808 236.828 100.064C236.828 100.747 236.998 101.28 237.34 101.664C237.724 102.005 238.278 102.176 239.004 102.176C240.497 102.176 241.948 101.408 243.356 99.872C244.806 98.2933 246.108 96.0747 247.26 93.216C248.113 91.168 248.796 89.0133 249.308 86.752C249.82 84.4907 250.076 82.5067 250.076 80.8C249.99 80.9707 249.713 81.12 249.244 81.248C248.817 81.376 248.412 81.44 248.028 81.44ZM278.301 81.568C278.301 85.1093 276.85 88.2027 273.949 90.848C271.047 93.4507 267.591 94.8587 263.581 95.072C263.538 95.7973 263.495 96.352 263.453 96.736C263.453 97.0773 263.453 97.376 263.453 97.632C263.453 99.5947 263.773 100.981 264.413 101.792C265.095 102.603 266.311 103.008 268.061 103.008C270.066 103.008 271.901 102.56 273.565 101.664C275.271 100.725 277.213 99.0187 279.389 96.544H281.565C279.09 100.555 276.402 103.541 273.501 105.504C270.599 107.424 267.421 108.384 263.965 108.384C260.679 108.384 258.183 107.531 256.477 105.824C254.812 104.117 253.98 101.579 253.98 98.208C253.98 95.776 254.364 93.1947 255.133 90.464C255.901 87.7333 256.925 85.3013 258.205 83.168C259.783 80.608 261.661 78.688 263.837 77.408C266.055 76.0853 268.53 75.424 271.26 75.424C273.607 75.424 275.357 75.936 276.509 76.96C277.703 77.9413 278.301 79.4773 278.301 81.568ZM271.773 78.816C270.322 78.816 268.85 80.1173 267.357 82.72C265.906 85.28 264.818 88.3733 264.093 92C266.567 91.8293 268.722 90.6987 270.557 88.608C272.434 86.4747 273.373 84.0853 273.373 81.44C273.373 80.544 273.245 79.8827 272.989 79.456C272.733 79.0293 272.327 78.816 271.773 78.816Z" fill="#00ADD2"/>
<path d="M34.1674 31.7411C32.1793 29.8247 32.1046 26.6329 34.2411 24.8833C38.784 21.1631 44.0632 18.4125 49.7539 16.8252C57.0554 14.7886 64.7686 14.7413 72.0946 16.6881C79.4205 18.6349 86.0927 22.505 91.42 27.8976C95.572 32.1005 98.7893 37.109 100.886 42.5937C101.872 45.173 100.223 47.9067 97.5456 48.5833L91.1845 50.191C88.5073 50.8677 85.8305 49.2143 84.6538 46.7161C83.4059 44.0669 81.7133 41.6369 79.6384 39.5365C76.3864 36.2446 72.3133 33.8821 67.8412 32.6937C63.3691 31.5053 58.6606 31.5342 54.2034 32.7774C51.3595 33.5707 48.684 34.8399 46.2855 36.5201C44.0239 38.1045 40.8795 38.211 38.8913 36.2946L34.1674 31.7411Z" fill="#00ADD2"/>
<path d="M83.9075 88.9905C85.9224 90.8788 86.0418 94.0695 83.9301 95.8489C76.6628 101.973 67.5081 105.518 57.9137 105.829C46.6444 106.194 35.6916 102.068 27.4646 94.358C19.2377 86.6478 14.4105 75.9852 14.0451 64.7159C13.7341 55.1215 16.6787 45.7564 22.319 38.1077C23.9579 35.8852 27.1496 35.7976 29.1645 37.6859L33.9518 42.1726C35.9667 44.0609 36.0198 47.2067 34.5522 49.5458C31.827 53.8898 30.429 58.9793 30.5976 64.1792C30.8206 71.0585 33.7673 77.5675 38.7894 82.2741C43.8116 86.9808 50.4977 89.4997 57.377 89.2766C62.5769 89.108 67.5652 87.3833 71.7235 84.3823C73.9627 82.7663 77.1053 82.6155 79.1202 84.5039L83.9075 88.9905Z" fill="#00ADD2"/>
<path d="M87.7362 85.2575C89.7779 87.1167 92.9678 86.9836 94.5747 84.7378C97.3936 80.7979 99.5258 76.3948 100.867 71.7143C102.209 67.0338 102.733 62.1698 102.43 57.3348C102.256 54.5788 99.6214 52.776 96.9048 53.2713L91.2395 54.3043C88.5228 54.7996 86.772 57.4137 86.7539 60.175C86.738 62.6023 86.3919 65.0239 85.7188 67.3721C85.0457 69.7203 84.0564 71.9576 82.784 74.0246C81.3365 76.3763 81.4367 79.5209 83.4784 81.3802L87.7362 85.2575Z" fill="#00ADD2"/>
</g>
<defs>
<filter id="filter0_d_8_2" x="10.0228" y="15.2621" width="275.542" height="116.738" filterUnits="userSpaceOnUse" color-interpolation-filters="sRGB">
<feFlood flood-opacity="0" result="BackgroundImageFix"/>
<feColorMatrix in="SourceAlpha" type="matrix" values="0 0 0 0 0 0 0 0 0 0 0 0 0 0 0 0 0 0 127 0" result="hardAlpha"/>
<feOffset dy="4"/>
<feGaussianBlur stdDeviation="2"/>
<feComposite in2="hardAlpha" operator="out"/>
<feColorMatrix type="matrix" values="0 0 0 0 0 0 0 0 0 0 0 0 0 0 0 0 0 0 0.2 0"/>
<feBlend mode="normal" in2="BackgroundImageFix" result="effect1_dropShadow_8_2"/>
<feBlend mode="normal" in="SourceGraphic" in2="effect1_dropShadow_8_2" result="shape"/>
</filter>
</defs>
</svg>
